<?xml version="1.0" ?><svg height="48px" version="1.1" viewBox="0 0 48 48" width="48px" xmlns="http://www.w3.org/2000/svg" xmlns:xlink="http://www.w3.org/1999/xlink"><title/><desc/><g fill="none" fill-rule="evenodd" id="Page-1" stroke="none" stroke-width="1"><g id="Artboard-Copy" transform="translate(-167.000000, -609.000000)"><path d="M179.9995,617 C178.8945,617 178.0005,617.895 178.0005,619 L178.0005,645 C178.0005,646.104 178.8945,647 179.9995,647 L182.0005,647 L182.0005,617 L179.9995,617 Z M182.9995,647 L202.0005,647 C203.1035,647 203.9995,646.104 203.9995,645 L203.9995,619 C203.9995,617.895 203.1035,617 202.0005,617 L199.9995,617 L199.9995,633 L196.9695,629.998 L194.0005,633 L194.0005,617 L182.9995,617 L182.9995,647 Z" fill="#000000" id="bookmark"/><g id="slices" transform="translate(47.000000, 9.000000)"/></g></g></svg>